HIERARCHY
ROOT Hips
{
	OFFSET 0.000000 0.000000 0.000000
	CHANNELS 6 Xposition Yposition Zposition Yrotation Xrotation Zrotation
	JOINT Chest
	{
		OFFSET 0.000000 -0.009281 11.569106
		CHANNELS 3 Yrotation Xrotation Zrotation
		JOINT Chest2
		{
			OFFSET -0.000000 0.016865 9.269641
			CHANNELS 3 Yrotation Xrotation Zrotation
			JOINT Chest3
			{
				OFFSET -0.000000 0.000001 8.374491
				CHANNELS 3 Yrotation Xrotation Zrotation
				JOINT Chest4
				{
					OFFSET -0.000000 0.000001 8.374493
					CHANNELS 3 Yrotation Xrotation Zrotation
					JOINT Neck
					{
						OFFSET -0.000000 0.000002 12.152554
						CHANNELS 3 Yrotation Xrotation Zrotation
						JOINT Head
						{
							OFFSET -0.000000 0.040101 7.802319
							CHANNELS 3 Yrotation Xrotation Zrotation
							End Site
							{
								OFFSET -0.000000 0.020947 14.853096
							}
						}
					}
					JOINT RightCollar
					{
						OFFSET 2.894404 0.000001 6.791374
						CHANNELS 3 Yrotation Xrotation Zrotation
						JOINT RightShoulder
						{
							OFFSET 13.574684 0.000001 0.000000
							CHANNELS 3 Yrotation Xrotation Zrotation
							JOINT RightElbow
							{
								OFFSET 23.923903 0.000002 0.000000
								CHANNELS 3 Yrotation Xrotation Zrotation
								JOINT RightWrist
								{
									OFFSET 19.846718 0.012767 0.000000
									CHANNELS 3 Yrotation Xrotation Zrotation
									End Site
									{
										OFFSET 14.973145 0.000001 0.000000
									}
								}
							}
						}
					}
					JOINT LeftCollar
					{
						OFFSET -2.894404 0.000001 6.791374
						CHANNELS 3 Yrotation Xrotation Zrotation
						JOINT LeftShoulder
						{
							OFFSET -13.574684 -0.000001 0.000000
							CHANNELS 3 Yrotation Xrotation Zrotation
							JOINT LeftElbow
							{
								OFFSET -23.923903 -0.000002 0.000000
								CHANNELS 3 Yrotation Xrotation Zrotation
								JOINT LeftWrist
								{
									OFFSET -19.846718 0.012763 0.000000
									CHANNELS 3 Yrotation Xrotation Zrotation
									End Site
									{
										OFFSET -14.973145 -0.000001 0.000000
									}
								}
							}
						}
					}
				}
			}
		}
	}
	JOINT RightHip
	{
		OFFSET 9.469263 0.004643 0.045487
		CHANNELS 3 Yrotation Xrotation Zrotation
		JOINT RightKnee
		{
			OFFSET 0.000000 0.002661 -40.478676
			CHANNELS 3 Yrotation Xrotation Zrotation
			JOINT RightAnkle
			{
				OFFSET 0.000000 0.049106 -35.224068
				CHANNELS 3 Yrotation Xrotation Zrotation
				JOINT RightToe
				{
					OFFSET -0.000001 12.539529 -6.151390
					CHANNELS 3 Yrotation Xrotation Zrotation
					End Site
					{
						OFFSET -0.000001 5.044994 -1.291870
					}
				}
			}
		}
	}
	JOINT LeftHip
	{
		OFFSET -9.469263 0.004641 0.045487
		CHANNELS 3 Yrotation Xrotation Zrotation
		JOINT LeftKnee
		{
			OFFSET 0.000000 0.002661 -40.478676
			CHANNELS 3 Yrotation Xrotation Zrotation
			JOINT LeftAnkle
			{
				OFFSET 0.000000 0.049106 -35.224068
				CHANNELS 3 Yrotation Xrotation Zrotation
				JOINT LeftToe
				{
					OFFSET -0.000001 12.539529 -6.151390
					CHANNELS 3 Yrotation Xrotation Zrotation
					End Site
					{
						OFFSET -0.000001 5.044994 -1.291870
					}
				}
			}
		}
	}
}
MOTION
Frames: 6
Frame Time: 0.016667
12.289545 -12.655168 83.282715 -2.437717 1.614279 -117.440417 -1.954128 -3.673743 2.168200 -0.643326 -1.897128 1.246267 -0.643325 -1.897127 1.246266 -0.478582 -1.424167 0.932619 1.895187 -11.715442 -4.386580 1.732571 14.409944 -7.586533 9.797921 5.792458 -2.597916 42.727382 -15.899188 -14.114617 -26.983612 -60.906149 86.824122 -43.536182 39.970977 50.918483 -7.933960 5.523722 -6.934294 -40.715905 -9.654318 19.852592 -1.930015 -64.573892 -61.091316 30.009232 15.892530 -75.181053 -7.791352 4.787350 -6.285442 3.350393 -18.030159 -11.031596 -1.515231 8.597042 -4.340209 -0.077527 -1.342632 0.141545 -0.072135 1.518764 -5.532832 3.089623 -4.652173 -7.905836 -2.031280 -2.058687 7.749971 -0.980039 1.418961 -0.172851 
11.893930 -12.001841 83.284325 -2.299681 1.627448 -117.353155 -1.931319 -3.585348 2.183023 -0.676355 -1.919572 1.277744 -0.676356 -1.919573 1.277747 -0.503207 -1.441103 0.956097 1.927023 -11.708992 -4.454859 1.763757 14.421446 -7.703792 9.774789 5.684184 -2.641487 42.656003 -16.110476 -13.800051 -26.835158 -60.840921 86.750171 -43.596657 39.855595 50.851377 -7.846705 5.476649 -6.876364 -40.776926 -9.236058 19.847744 -1.436515 -64.640036 -61.559744 30.012264 15.794505 -75.349650 -6.939894 4.909400 -4.238834 2.433113 -17.984728 -8.541683 -0.408153 9.800887 -3.634777 -0.951578 -1.856517 0.115691 0.183431 2.145183 -9.429938 3.474276 -4.035954 -8.764407 -2.655448 -2.952383 5.791542 -1.058948 1.333156 -0.023196 
11.505832 -11.344069 83.248924 -2.376571 1.405279 -117.639476 -1.842364 -3.804408 2.534228 -0.695613 -1.933374 1.334194 -0.695613 -1.933374 1.334192 -0.517442 -1.451559 0.998353 1.942157 -11.699965 -4.522152 1.763238 14.436926 -7.826485 9.744083 5.603939 -2.674993 42.499343 -16.275480 -13.495066 -26.585779 -60.896013 86.712182 -43.671461 39.733051 50.767976 -7.720387 5.404900 -6.820576 -40.885338 -8.991719 19.751826 -0.872487 -64.517748 -62.077103 30.012548 15.620969 -75.457410 -5.981688 4.893376 -0.483774 1.707423 -18.137625 -7.082662 1.533532 11.064409 -2.157029 -2.138411 -2.262468 0.089284 0.643663 2.373592 -12.527115 3.564542 -3.330674 -9.434893 -3.418946 -3.516684 3.961623 -0.826431 1.048464 0.062493 
11.295118 -10.846210 83.199875 -2.519110 0.994150 -118.060025 -1.622061 -4.173120 2.969996 -0.696509 -1.930982 1.395701 -0.696509 -1.930981 1.395701 -0.517925 -1.449838 1.044481 1.937864 -11.711752 -4.567783 1.735927 14.413465 -7.915411 9.727415 5.541628 -2.557356 42.283044 -16.337449 -13.295510 -26.355246 -61.021907 86.770880 -43.766186 39.662970 50.669181 -7.706899 5.562979 -6.731184 -40.941677 -9.070784 19.733383 -0.389546 -64.349733 -62.482646 29.933126 15.412668 -75.438394 -5.073756 5.060665 3.646635 1.224971 -18.742288 -5.952207 3.810176 12.377152 -0.070218 -3.265929 -2.647223 0.075466 1.382089 2.191329 -14.161938 3.330043 -2.547192 -9.991747 -4.366571 -3.649859 2.061341 -0.211987 0.590077 0.050756 
11.198003 -10.335416 83.075768 -2.611300 0.679503 -118.444783 -1.438852 -4.454204 3.353928 -0.692156 -1.923206 1.438563 -0.692156 -1.923206 1.438562 -0.514544 -1.444045 1.076640 1.933862 -11.736833 -4.583767 1.722671 14.366248 -7.946936 9.723967 5.648107 -2.448133 42.110589 -16.497444 -13.227284 -26.187744 -61.111547 86.849947 -43.833743 39.617846 50.577848 -7.730990 5.831982 -6.652852 -40.916808 -9.180671 19.734491 -0.237213 -64.353107 -62.568037 29.825957 15.194446 -75.413772 -4.393105 5.344035 7.242792 1.123236 -19.462505 -5.064620 5.502634 13.073140 1.888911 -3.853485 -2.465500 0.032767 1.911868 2.037509 -14.315974 2.977327 -2.090858 -9.955761 -5.693303 -3.347274 0.021184 0.917130 -0.035318 0.072555 
11.148526 -9.847627 82.956902 -2.680034 0.505429 -118.594842 -1.323886 -4.596124 3.527652 -0.682598 -1.934684 1.440592 -0.682599 -1.934684 1.440590 -0.507342 -1.452632 1.078182 1.932468 -11.753863 -4.566989 1.728111 14.335102 -7.914833 9.721634 5.789781 -2.394062 42.045856 -16.643527 -13.215472 -26.085457 -61.118452 86.867971 -43.781998 39.544514 50.576065 -7.781127 6.042609 -6.682356 -40.821073 -9.192396 19.771830 -0.322259 -64.519149 -62.439131 29.766712 15.122025 -75.485748 -4.194470 5.866867 10.066902 1.598915 -20.395414 -5.013015 6.074593 12.930030 3.115695 -3.551916 -1.599088 -0.033991 2.024599 2.083668 -13.379362 2.626439 -2.229080 -9.147624 -6.671885 -2.738742 -2.237870 1.852634 -0.706118 0.002823 
